<?xml version="1.0" encoding="UTF-8"?>
<?xml-stylesheet href="https://cdnjs.cloudflare.com/ajax/libs/font-awesome/6.6.0/css/all.min.css" type="text/css"?>
<svg aria-roledescription="er" role="graphics-document document" viewBox="0 0 564.750732421875 386" style="max-width: 100%;" xmlns="http://www.w3.org/2000/svg" width="100%" id="graph-div" height="100%" xmlns:xlink="http://www.w3.org/1999/xlink"><style>#graph-div{font-family:"trebuchet ms",verdana,arial,sans-serif;font-size:16px;fill:#333;}#graph-div .error-icon{fill:#552222;}#graph-div .error-text{fill:#552222;stroke:#552222;}#graph-div .edge-thickness-normal{stroke-width:1px;}#graph-div .edge-thickness-thick{stroke-width:3.5px;}#graph-div .edge-pattern-solid{stroke-dasharray:0;}#graph-div .edge-thickness-invisible{stroke-width:0;fill:none;}#graph-div .edge-pattern-dashed{stroke-dasharray:3;}#graph-div .edge-pattern-dotted{stroke-dasharray:2;}#graph-div .marker{fill:#333333;stroke:#333333;}#graph-div .marker.cross{stroke:#333333;}#graph-div svg{font-family:"trebuchet ms",verdana,arial,sans-serif;font-size:16px;}#graph-div p{margin:0;}#graph-div .entityBox{fill:#ECECFF;stroke:#9370DB;}#graph-div .attributeBoxOdd{fill:#ffffff;stroke:#9370DB;}#graph-div .attributeBoxEven{fill:#f2f2f2;stroke:#9370DB;}#graph-div .relationshipLabelBox{fill:hsl(80, 100%, 96.2745098039%);opacity:0.7;background-color:hsl(80, 100%, 96.2745098039%);}#graph-div .relationshipLabelBox rect{opacity:0.5;}#graph-div .relationshipLine{stroke:#333333;}#graph-div .entityTitleText{text-anchor:middle;font-size:18px;fill:#333;}#graph-div #MD_PARENT_START{fill:#f5f5f5!important;stroke:#333333!important;stroke-width:1;}#graph-div #MD_PARENT_END{fill:#f5f5f5!important;stroke:#333333!important;stroke-width:1;}#graph-div :root{--mermaid-font-family:"trebuchet ms",verdana,arial,sans-serif;}</style><g></g><defs><marker orient="auto" markerHeight="240" markerWidth="190" refY="7" refX="0" id="MD_PARENT_START"><path d="M 18,7 L9,13 L1,7 L9,1 Z"></path></marker></defs><defs><marker orient="auto" markerHeight="28" markerWidth="20" refY="7" refX="19" id="MD_PARENT_END"><path d="M 18,7 L9,13 L1,7 L9,1 Z"></path></marker></defs><defs><marker orient="auto" markerHeight="18" markerWidth="18" refY="9" refX="0" id="ONLY_ONE_START"><path d="M9,0 L9,18 M15,0 L15,18" fill="none" stroke="gray"></path></marker></defs><defs><marker orient="auto" markerHeight="18" markerWidth="18" refY="9" refX="18" id="ONLY_ONE_END"><path d="M3,0 L3,18 M9,0 L9,18" fill="none" stroke="gray"></path></marker></defs><defs><marker orient="auto" markerHeight="18" markerWidth="30" refY="9" refX="0" id="ZERO_OR_ONE_START"><circle r="6" cy="9" cx="21" fill="white" stroke="gray"></circle><path d="M9,0 L9,18" fill="none" stroke="gray"></path></marker></defs><defs><marker orient="auto" markerHeight="18" markerWidth="30" refY="9" refX="30" id="ZERO_OR_ONE_END"><circle r="6" cy="9" cx="9" fill="white" stroke="gray"></circle><path d="M21,0 L21,18" fill="none" stroke="gray"></path></marker></defs><defs><marker orient="auto" markerHeight="36" markerWidth="45" refY="18" refX="18" id="ONE_OR_MORE_START"><path d="M0,18 Q 18,0 36,18 Q 18,36 0,18 M42,9 L42,27" fill="none" stroke="gray"></path></marker></defs><defs><marker orient="auto" markerHeight="36" markerWidth="45" refY="18" refX="27" id="ONE_OR_MORE_END"><path d="M3,9 L3,27 M9,18 Q27,0 45,18 Q27,36 9,18" fill="none" stroke="gray"></path></marker></defs><defs><marker orient="auto" markerHeight="36" markerWidth="57" refY="18" refX="18" id="ZERO_OR_MORE_START"><circle r="6" cy="18" cx="48" fill="white" stroke="gray"></circle><path d="M0,18 Q18,0 36,18 Q18,36 0,18" fill="none" stroke="gray"></path></marker></defs><defs><marker orient="auto" markerHeight="36" markerWidth="57" refY="18" refX="39" id="ZERO_OR_MORE_END"><circle r="6" cy="18" cx="9" fill="white" stroke="gray"></circle><path d="M21,18 Q39,0 57,18 Q39,36 21,18" fill="none" stroke="gray"></path></marker></defs><path style="stroke: gray; fill: none;" marker-start="url(#ZERO_OR_MORE_START)" marker-end="url(#ONLY_ONE_END)" d="M188.883,176L178.715,184.333C168.546,192.667,148.209,209.333,138.041,227.833C127.872,246.333,127.872,266.667,127.872,276.833L127.872,287" class="er relationshipLine"></path><path style="stroke: gray; fill: none;" marker-start="url(#ZERO_OR_MORE_START)" marker-end="url(#ONLY_ONE_END)" d="M379.237,176L389.405,184.333C399.574,192.667,419.911,209.333,430.079,226C440.248,242.667,440.248,259.333,440.248,267.667L440.248,276" class="er relationshipLine"></path><g transform="translate(165.8283348083496,20 )" id="entity-Azubis-34b391e8-8ec1-58d8-a4d7-8944fe67693d"><rect height="156" width="236.46339416503906" y="0" x="0" class="er entityBox"></rect><text transform="translate(118.23169708251953,12)" style="dominant-baseline: middle; text-anchor: middle; font-size: 12px;" y="0" x="0" id="text-entity-Azubis-34b391e8-8ec1-58d8-a4d7-8944fe67693d" class="er entityLabel">Azubis</text><rect height="22" width="63.70890808105469" y="24" x="0" class="er attributeBoxOdd"></rect><text transform="translate(5,35)" style="dominant-baseline: middle; font-size: 10.2px;" y="0" x="0" id="text-entity-Azubis-34b391e8-8ec1-58d8-a4d7-8944fe67693d-attr-1-type" class="er entityLabel">int</text><rect height="22" width="93.58561706542969" y="24" x="63.70890808105469" class="er attributeBoxOdd"></rect><text transform="translate(68.70890808105469,35)" style="dominant-baseline: middle; font-size: 10.2px;" y="0" x="0" id="text-entity-Azubis-34b391e8-8ec1-58d8-a4d7-8944fe67693d-attr-1-name" class="er entityLabel">azubi_id</text><rect height="22" width="22.68768310546875" y="24" x="157.29452514648438" class="er attributeBoxOdd"></rect><text transform="translate(162.29452514648438,35)" style="dominant-baseline: middle; font-size: 10.2px;" y="0" x="0" id="text-entity-Azubis-34b391e8-8ec1-58d8-a4d7-8944fe67693d-attr-1-key" class="er entityLabel">PK</text><rect height="22" width="56.48118591308594" y="24" x="179.98220825195312" class="er attributeBoxOdd"></rect><text transform="translate(184.98220825195312,35)" style="dominant-baseline: middle; font-size: 10.2px;" y="0" x="0" id="text-entity-Azubis-34b391e8-8ec1-58d8-a4d7-8944fe67693d-attr-1-comment" class="er entityLabel">NOT NULL</text><rect height="22" width="63.70890808105469" y="46" x="0" class="er attributeBoxEven"></rect><text transform="translate(5,57)" style="dominant-baseline: middle; font-size: 10.2px;" y="0" x="0" id="text-entity-Azubis-34b391e8-8ec1-58d8-a4d7-8944fe67693d-attr-2-type" class="er entityLabel">varchar(50)</text><rect height="22" width="93.58561706542969" y="46" x="63.70890808105469" class="er attributeBoxEven"></rect><text transform="translate(68.70890808105469,57)" style="dominant-baseline: middle; font-size: 10.2px;" y="0" x="0" id="text-entity-Azubis-34b391e8-8ec1-58d8-a4d7-8944fe67693d-attr-2-name" class="er entityLabel">vorname</text><rect height="22" width="22.68768310546875" y="46" x="157.29452514648438" class="er attributeBoxEven"></rect><text transform="translate(162.29452514648438,57)" style="dominant-baseline: middle; font-size: 10.2px;" y="0" x="0" id="text-entity-Azubis-34b391e8-8ec1-58d8-a4d7-8944fe67693d-attr-2-key" class="er entityLabel"></text><rect height="22" width="56.48118591308594" y="46" x="179.98220825195312" class="er attributeBoxEven"></rect><text transform="translate(184.98220825195312,57)" style="dominant-baseline: middle; font-size: 10.2px;" y="0" x="0" id="text-entity-Azubis-34b391e8-8ec1-58d8-a4d7-8944fe67693d-attr-2-comment" class="er entityLabel">NOT NULL</text><rect height="22" width="63.70890808105469" y="68" x="0" class="er attributeBoxOdd"></rect><text transform="translate(5,79)" style="dominant-baseline: middle; font-size: 10.2px;" y="0" x="0" id="text-entity-Azubis-34b391e8-8ec1-58d8-a4d7-8944fe67693d-attr-3-type" class="er entityLabel">varchar(50)</text><rect height="22" width="93.58561706542969" y="68" x="63.70890808105469" class="er attributeBoxOdd"></rect><text transform="translate(68.70890808105469,79)" style="dominant-baseline: middle; font-size: 10.2px;" y="0" x="0" id="text-entity-Azubis-34b391e8-8ec1-58d8-a4d7-8944fe67693d-attr-3-name" class="er entityLabel">nachname</text><rect height="22" width="22.68768310546875" y="68" x="157.29452514648438" class="er attributeBoxOdd"></rect><text transform="translate(162.29452514648438,79)" style="dominant-baseline: middle; font-size: 10.2px;" y="0" x="0" id="text-entity-Azubis-34b391e8-8ec1-58d8-a4d7-8944fe67693d-attr-3-key" class="er entityLabel"></text><rect height="22" width="56.48118591308594" y="68" x="179.98220825195312" class="er attributeBoxOdd"></rect><text transform="translate(184.98220825195312,79)" style="dominant-baseline: middle; font-size: 10.2px;" y="0" x="0" id="text-entity-Azubis-34b391e8-8ec1-58d8-a4d7-8944fe67693d-attr-3-comment" class="er entityLabel">NOT NULL</text><rect height="22" width="63.70890808105469" y="90" x="0" class="er attributeBoxEven"></rect><text transform="translate(5,101)" style="dominant-baseline: middle; font-size: 10.2px;" y="0" x="0" id="text-entity-Azubis-34b391e8-8ec1-58d8-a4d7-8944fe67693d-attr-4-type" class="er entityLabel">date</text><rect height="22" width="93.58561706542969" y="90" x="63.70890808105469" class="er attributeBoxEven"></rect><text transform="translate(68.70890808105469,101)" style="dominant-baseline: middle; font-size: 10.2px;" y="0" x="0" id="text-entity-Azubis-34b391e8-8ec1-58d8-a4d7-8944fe67693d-attr-4-name" class="er entityLabel">ausbildungsbeginn</text><rect height="22" width="22.68768310546875" y="90" x="157.29452514648438" class="er attributeBoxEven"></rect><text transform="translate(162.29452514648438,101)" style="dominant-baseline: middle; font-size: 10.2px;" y="0" x="0" id="text-entity-Azubis-34b391e8-8ec1-58d8-a4d7-8944fe67693d-attr-4-key" class="er entityLabel"></text><rect height="22" width="56.48118591308594" y="90" x="179.98220825195312" class="er attributeBoxEven"></rect><text transform="translate(184.98220825195312,101)" style="dominant-baseline: middle; font-size: 10.2px;" y="0" x="0" id="text-entity-Azubis-34b391e8-8ec1-58d8-a4d7-8944fe67693d-attr-4-comment" class="er entityLabel">NOT NULL</text><rect height="22" width="63.70890808105469" y="112" x="0" class="er attributeBoxOdd"></rect><text transform="translate(5,123)" style="dominant-baseline: middle; font-size: 10.2px;" y="0" x="0" id="text-entity-Azubis-34b391e8-8ec1-58d8-a4d7-8944fe67693d-attr-5-type" class="er entityLabel">varchar(4)</text><rect height="22" width="93.58561706542969" y="112" x="63.70890808105469" class="er attributeBoxOdd"></rect><text transform="translate(68.70890808105469,123)" style="dominant-baseline: middle; font-size: 10.2px;" y="0" x="0" id="text-entity-Azubis-34b391e8-8ec1-58d8-a4d7-8944fe67693d-attr-5-name" class="er entityLabel">ausbildung_id</text><rect height="22" width="22.68768310546875" y="112" x="157.29452514648438" class="er attributeBoxOdd"></rect><text transform="translate(162.29452514648438,123)" style="dominant-baseline: middle; font-size: 10.2px;" y="0" x="0" id="text-entity-Azubis-34b391e8-8ec1-58d8-a4d7-8944fe67693d-attr-5-key" class="er entityLabel">FK</text><rect height="22" width="56.48118591308594" y="112" x="179.98220825195312" class="er attributeBoxOdd"></rect><text transform="translate(184.98220825195312,123)" style="dominant-baseline: middle; font-size: 10.2px;" y="0" x="0" id="text-entity-Azubis-34b391e8-8ec1-58d8-a4d7-8944fe67693d-attr-5-comment" class="er entityLabel">NOT NULL</text><rect height="22" width="63.70890808105469" y="134" x="0" class="er attributeBoxEven"></rect><text transform="translate(5,145)" style="dominant-baseline: middle; font-size: 10.2px;" y="0" x="0" id="text-entity-Azubis-34b391e8-8ec1-58d8-a4d7-8944fe67693d-attr-6-type" class="er entityLabel">int</text><rect height="22" width="93.58561706542969" y="134" x="63.70890808105469" class="er attributeBoxEven"></rect><text transform="translate(68.70890808105469,145)" style="dominant-baseline: middle; font-size: 10.2px;" y="0" x="0" id="text-entity-Azubis-34b391e8-8ec1-58d8-a4d7-8944fe67693d-attr-6-name" class="er entityLabel">ausbilder_id</text><rect height="22" width="22.68768310546875" y="134" x="157.29452514648438" class="er attributeBoxEven"></rect><text transform="translate(162.29452514648438,145)" style="dominant-baseline: middle; font-size: 10.2px;" y="0" x="0" id="text-entity-Azubis-34b391e8-8ec1-58d8-a4d7-8944fe67693d-attr-6-key" class="er entityLabel">FK</text><rect height="22" width="56.48118591308594" y="134" x="179.98220825195312" class="er attributeBoxEven"></rect><text transform="translate(184.98220825195312,145)" style="dominant-baseline: middle; font-size: 10.2px;" y="0" x="0" id="text-entity-Azubis-34b391e8-8ec1-58d8-a4d7-8944fe67693d-attr-6-comment" class="er entityLabel">NOT NULL</text></g><g transform="translate(20,287 )" id="entity-Ausbildungen-2bad6b93-221b-5ed1-8d56-1b607374679b"><rect height="68" width="215.7446746826172" y="0" x="0" class="er entityBox"></rect><text transform="translate(107.8723373413086,12)" style="dominant-baseline: middle; text-anchor: middle; font-size: 12px;" y="0" x="0" id="text-entity-Ausbildungen-2bad6b93-221b-5ed1-8d56-1b607374679b" class="er entityLabel">Ausbildungen</text><rect height="22" width="63.70890808105469" y="24" x="0" class="er attributeBoxOdd"></rect><text transform="translate(5,35)" style="dominant-baseline: middle; font-size: 10.2px;" y="0" x="0" id="text-entity-Ausbildungen-2bad6b93-221b-5ed1-8d56-1b607374679b-attr-1-type" class="er entityLabel">varchar(4)</text><rect height="22" width="72.86689758300781" y="24" x="63.70890808105469" class="er attributeBoxOdd"></rect><text transform="translate(68.70890808105469,35)" style="dominant-baseline: middle; font-size: 10.2px;" y="0" x="0" id="text-entity-Ausbildungen-2bad6b93-221b-5ed1-8d56-1b607374679b-attr-1-name" class="er entityLabel">ausbildung_id</text><rect height="22" width="22.68768310546875" y="24" x="136.5758056640625" class="er attributeBoxOdd"></rect><text transform="translate(141.5758056640625,35)" style="dominant-baseline: middle; font-size: 10.2px;" y="0" x="0" id="text-entity-Ausbildungen-2bad6b93-221b-5ed1-8d56-1b607374679b-attr-1-key" class="er entityLabel">PK</text><rect height="22" width="56.48118591308594" y="24" x="159.26348876953125" class="er attributeBoxOdd"></rect><text transform="translate(164.26348876953125,35)" style="dominant-baseline: middle; font-size: 10.2px;" y="0" x="0" id="text-entity-Ausbildungen-2bad6b93-221b-5ed1-8d56-1b607374679b-attr-1-comment" class="er entityLabel">NOT NULL</text><rect height="22" width="63.70890808105469" y="46" x="0" class="er attributeBoxEven"></rect><text transform="translate(5,57)" style="dominant-baseline: middle; font-size: 10.2px;" y="0" x="0" id="text-entity-Ausbildungen-2bad6b93-221b-5ed1-8d56-1b607374679b-attr-2-type" class="er entityLabel">varchar(50)</text><rect height="22" width="72.86689758300781" y="46" x="63.70890808105469" class="er attributeBoxEven"></rect><text transform="translate(68.70890808105469,57)" style="dominant-baseline: middle; font-size: 10.2px;" y="0" x="0" id="text-entity-Ausbildungen-2bad6b93-221b-5ed1-8d56-1b607374679b-attr-2-name" class="er entityLabel">bezeichnung</text><rect height="22" width="22.68768310546875" y="46" x="136.5758056640625" class="er attributeBoxEven"></rect><text transform="translate(141.5758056640625,57)" style="dominant-baseline: middle; font-size: 10.2px;" y="0" x="0" id="text-entity-Ausbildungen-2bad6b93-221b-5ed1-8d56-1b607374679b-attr-2-key" class="er entityLabel"></text><rect height="22" width="56.48118591308594" y="46" x="159.26348876953125" class="er attributeBoxEven"></rect><text transform="translate(164.26348876953125,57)" style="dominant-baseline: middle; font-size: 10.2px;" y="0" x="0" id="text-entity-Ausbildungen-2bad6b93-221b-5ed1-8d56-1b607374679b-attr-2-comment" class="er entityLabel">NOT NULL</text></g><g transform="translate(335.7446746826172,276 )" id="entity-Ausbilder-34de8bbb-f8d4-53ea-b7bf-d6e99d924cf5"><rect height="90" width="209.006103515625" y="0" x="0" class="er entityBox"></rect><text transform="translate(104.5030517578125,12)" style="dominant-baseline: middle; text-anchor: middle; font-size: 12px;" y="0" x="0" id="text-entity-Ausbilder-34de8bbb-f8d4-53ea-b7bf-d6e99d924cf5" class="er entityLabel">Ausbilder</text><rect height="22" width="63.70890808105469" y="24" x="0" class="er attributeBoxOdd"></rect><text transform="translate(5,35)" style="dominant-baseline: middle; font-size: 10.2px;" y="0" x="0" id="text-entity-Ausbilder-34de8bbb-f8d4-53ea-b7bf-d6e99d924cf5-attr-1-type" class="er entityLabel">int</text><rect height="22" width="66.12832641601562" y="24" x="63.70890808105469" class="er attributeBoxOdd"></rect><text transform="translate(68.70890808105469,35)" style="dominant-baseline: middle; font-size: 10.2px;" y="0" x="0" id="text-entity-Ausbilder-34de8bbb-f8d4-53ea-b7bf-d6e99d924cf5-attr-1-name" class="er entityLabel">ausbilder_id</text><rect height="22" width="22.68768310546875" y="24" x="129.8372344970703" class="er attributeBoxOdd"></rect><text transform="translate(134.8372344970703,35)" style="dominant-baseline: middle; font-size: 10.2px;" y="0" x="0" id="text-entity-Ausbilder-34de8bbb-f8d4-53ea-b7bf-d6e99d924cf5-attr-1-key" class="er entityLabel">PK</text><rect height="22" width="56.48118591308594" y="24" x="152.52491760253906" class="er attributeBoxOdd"></rect><text transform="translate(157.52491760253906,35)" style="dominant-baseline: middle; font-size: 10.2px;" y="0" x="0" id="text-entity-Ausbilder-34de8bbb-f8d4-53ea-b7bf-d6e99d924cf5-attr-1-comment" class="er entityLabel">NOT NULL</text><rect height="22" width="63.70890808105469" y="46" x="0" class="er attributeBoxEven"></rect><text transform="translate(5,57)" style="dominant-baseline: middle; font-size: 10.2px;" y="0" x="0" id="text-entity-Ausbilder-34de8bbb-f8d4-53ea-b7bf-d6e99d924cf5-attr-2-type" class="er entityLabel">varchar(50)</text><rect height="22" width="66.12832641601562" y="46" x="63.70890808105469" class="er attributeBoxEven"></rect><text transform="translate(68.70890808105469,57)" style="dominant-baseline: middle; font-size: 10.2px;" y="0" x="0" id="text-entity-Ausbilder-34de8bbb-f8d4-53ea-b7bf-d6e99d924cf5-attr-2-name" class="er entityLabel">vorname</text><rect height="22" width="22.68768310546875" y="46" x="129.8372344970703" class="er attributeBoxEven"></rect><text transform="translate(134.8372344970703,57)" style="dominant-baseline: middle; font-size: 10.2px;" y="0" x="0" id="text-entity-Ausbilder-34de8bbb-f8d4-53ea-b7bf-d6e99d924cf5-attr-2-key" class="er entityLabel"></text><rect height="22" width="56.48118591308594" y="46" x="152.52491760253906" class="er attributeBoxEven"></rect><text transform="translate(157.52491760253906,57)" style="dominant-baseline: middle; font-size: 10.2px;" y="0" x="0" id="text-entity-Ausbilder-34de8bbb-f8d4-53ea-b7bf-d6e99d924cf5-attr-2-comment" class="er entityLabel">NOT NULL</text><rect height="22" width="63.70890808105469" y="68" x="0" class="er attributeBoxOdd"></rect><text transform="translate(5,79)" style="dominant-baseline: middle; font-size: 10.2px;" y="0" x="0" id="text-entity-Ausbilder-34de8bbb-f8d4-53ea-b7bf-d6e99d924cf5-attr-3-type" class="er entityLabel">varchar(50)</text><rect height="22" width="66.12832641601562" y="68" x="63.70890808105469" class="er attributeBoxOdd"></rect><text transform="translate(68.70890808105469,79)" style="dominant-baseline: middle; font-size: 10.2px;" y="0" x="0" id="text-entity-Ausbilder-34de8bbb-f8d4-53ea-b7bf-d6e99d924cf5-attr-3-name" class="er entityLabel">nachname</text><rect height="22" width="22.68768310546875" y="68" x="129.8372344970703" class="er attributeBoxOdd"></rect><text transform="translate(134.8372344970703,79)" style="dominant-baseline: middle; font-size: 10.2px;" y="0" x="0" id="text-entity-Ausbilder-34de8bbb-f8d4-53ea-b7bf-d6e99d924cf5-attr-3-key" class="er entityLabel"></text><rect height="22" width="56.48118591308594" y="68" x="152.52491760253906" class="er attributeBoxOdd"></rect><text transform="translate(157.52491760253906,79)" style="dominant-baseline: middle; font-size: 10.2px;" y="0" x="0" id="text-entity-Ausbilder-34de8bbb-f8d4-53ea-b7bf-d6e99d924cf5-attr-3-comment" class="er entityLabel">NOT NULL</text></g><rect height="14" width="53.333984375" y="215.5851287841797" x="114.55006408691406" class="er relationshipLabelBox"></rect><text style="text-anchor: middle; dominant-baseline: middle; font-size: 12px;" y="222.5851287841797" x="141.21705627441406" id="rel1" class="er relationshipLabel">absolviert</text><rect height="14" width="91.759765625" y="210.89743041992188" x="378.5132751464844" class="er relationshipLabelBox"></rect><text style="text-anchor: middle; dominant-baseline: middle; font-size: 12px;" y="217.89743041992188" x="424.3931579589844" id="rel2" class="er relationshipLabel">wird betreut von</text></svg>