<svg xmlns="http://www.w3.org/2000/svg" xmlns:xlink="http://www.w3.org/1999/xlink" contentStyleType="text/css" height="564px" preserveAspectRatio="none" style="width:749px;height:564px;background:#FFFFFF;" version="1.1" viewBox="0 0 749 564" width="749px" zoomAndPan="magnify"><defs/><g><!--cluster IHK-Transform--><g id="cluster_IHK-Transform"><rect fill="none" height="430.82" rx="2.5" ry="2.5" style="stroke:#181818;stroke-width:1.0;" width="736" x="7" y="127.8"/><text fill="#000000" font-family="sans-serif" font-size="14" font-weight="bold" lengthAdjust="spacing" textLength="114" x="318" y="142.7951">IHK-Transform</text></g><g id="elem_DatenquelleAuswaehlen"><ellipse cx="182.9973" cy="185.0135" fill="#F1F1F1" rx="99.0673" ry="22.2135" style="stroke:#181818;stroke-width:0.5;"/><text fill="#000000" font-family="sans-serif" font-size="14" lengthAdjust="spacing" textLength="162" x="101.9973" y="187.8601">Datenquelle ausw&#228;hlen</text></g><g id="elem_CSV"><ellipse cx="54.0043" cy="288.9936" fill="#F1F1F1" rx="31.2843" ry="14.5236" style="stroke:#181818;stroke-width:0.5;"/><text fill="#000000" font-family="sans-serif" font-size="14" lengthAdjust="spacing" textLength="28" x="40.0043" y="291.8403">CSV</text></g><g id="elem_Relational"><ellipse cx="150.9972" cy="288.9936" fill="#F1F1F1" rx="30.5772" ry="14.5236" style="stroke:#181818;stroke-width:0.5;"/><text fill="#000000" font-family="sans-serif" font-size="14" lengthAdjust="spacing" textLength="27" x="137.4972" y="291.8403">SQL</text></g><g id="elem_Hierarchisch"><ellipse cx="248.0043" cy="288.9936" fill="#F1F1F1" rx="31.2843" ry="14.5236" style="stroke:#181818;stroke-width:0.5;"/><text fill="#000000" font-family="sans-serif" font-size="14" lengthAdjust="spacing" textLength="28" x="234.0043" y="291.8403">XML</text></g><g id="elem_Zwischenschritt"><ellipse cx="405.9951" cy="185.011" fill="#F1F1F1" rx="78.1551" ry="18.031" style="stroke:#181818;stroke-width:0.5;"/><text fill="#000000" font-family="sans-serif" font-size="14" lengthAdjust="spacing" textLength="114" x="346.6059" y="188.5966">Azubis anzeigen</text></g><g id="elem_ZuordnungAnzeigen"><ellipse cx="405.9972" cy="288.9874" fill="#F1F1F1" rx="91.8872" ry="20.7774" style="stroke:#181818;stroke-width:0.5;"/><text fill="#000000" font-family="sans-serif" font-size="14" lengthAdjust="spacing" textLength="146" x="332.9972" y="291.8341">Zuordnung anzeigen</text></g><g id="elem_ZuordnungBearbeiten"><ellipse cx="629.9993" cy="288.9919" fill="#F1F1F1" rx="96.8093" ry="21.7619" style="stroke:#181818;stroke-width:0.5;"/><text fill="#000000" font-family="sans-serif" font-size="14" lengthAdjust="spacing" textLength="157" x="551.4993" y="291.8385">Zuordnung bearbeiten</text></g><g id="elem_ZuordnungSpeichern"><ellipse cx="629.9963" cy="408.9733" fill="#F1F1F1" rx="94.1163" ry="21.2233" style="stroke:#181818;stroke-width:0.5;"/><text fill="#000000" font-family="sans-serif" font-size="14" lengthAdjust="spacing" textLength="151" x="554.4963" y="411.8199">Zuordnung speichern</text></g><g id="elem_Suchen"><ellipse cx="405.9951" cy="408.9674" fill="#F1F1F1" rx="49.6151" ry="14.6874" style="stroke:#181818;stroke-width:0.5;"/><text fill="#000000" font-family="sans-serif" font-size="14" lengthAdjust="spacing" textLength="53" x="376.4951" y="412.7149">Suchen</text></g><g id="elem_FilterAnwenden"><ellipse cx="354.0012" cy="524.9122" fill="#F1F1F1" rx="76.5612" ry="17.7122" style="stroke:#181818;stroke-width:0.5;"/><text fill="#000000" font-family="sans-serif" font-size="14" lengthAdjust="spacing" textLength="110" x="296.0012" y="528.6598">Filter anwenden</text></g><g id="elem_Sortieren"><ellipse cx="522.9999" cy="524.9111" fill="#F1F1F1" rx="57.0799" ry="14.7511" style="stroke:#181818;stroke-width:0.5;"/><text fill="#000000" font-family="sans-serif" font-size="14" lengthAdjust="spacing" textLength="63" x="488.4999" y="528.6587">Sortieren</text></g><!--entity Actor--><g id="elem_Actor"><ellipse cx="183" cy="14" fill="#F1F1F1" rx="8" ry="8" style="stroke:#181818;stroke-width:0.5;"/><path d="M183,22 L183,49 M170,30 L196,30 M183,49 L170,64 M183,49 L196,64 " fill="none" style="stroke:#181818;stroke-width:0.5;"/><text fill="#000000" font-family="sans-serif" font-size="14" lengthAdjust="spacing" textLength="36" x="165" y="78.4951">Actor</text></g><!--link DatenquelleAuswaehlen to CSV--><g id="link_DatenquelleAuswaehlen_CSV"><path d="M156.58,206.89 C130.19,227.75 95.2674,255.3697 73.8074,272.3297 " fill="none" id="DatenquelleAuswaehlen-to-CSV" style="stroke:#181818;stroke-width:1.0;"/><polygon fill="#181818" points="69.1,276.05,78.6413,273.6078,73.0228,272.9498,73.6809,267.3313,69.1,276.05" style="stroke:#181818;stroke-width:1.0;"/></g><!--link DatenquelleAuswaehlen to Relational--><g id="link_DatenquelleAuswaehlen_Relational"><path d="M176.21,207.64 C169.9,227.75 162.4877,251.3856 157.1177,268.4856 " fill="none" id="DatenquelleAuswaehlen-to-Relational" style="stroke:#181818;stroke-width:1.0;"/><polygon fill="#181818" points="155.32,274.21,161.8327,266.8219,156.818,269.4397,154.2002,264.425,155.32,274.21" style="stroke:#181818;stroke-width:1.0;"/></g><!--link DatenquelleAuswaehlen to Hierarchisch--><g id="link_DatenquelleAuswaehlen_Hierarchisch"><path d="M196.47,207.14 C209.41,227.44 225.3338,252.4412 236.2838,269.6112 " fill="none" id="DatenquelleAuswaehlen-to-Hierarchisch" style="stroke:#181818;stroke-width:1.0;"/><polygon fill="#181818" points="239.51,274.67,238.0432,264.931,236.8215,270.4543,231.2981,269.2326,239.51,274.67" style="stroke:#181818;stroke-width:1.0;"/></g><!--link DatenquelleAuswaehlen to Zwischenschritt--><g id="link_DatenquelleAuswaehlen_Zwischenschritt"><path d="M282.43,185.01 C297.53,185.01 306.93,185.01 321.5,185.01 " fill="none" id="DatenquelleAuswaehlen-to-Zwischenschritt" style="stroke:#181818;stroke-width:1.0;stroke-dasharray:7.0,7.0;"/><polygon fill="#181818" points="327.5,185.01,318.5,181.01,322.5,185.01,318.5,189.01,327.5,185.01" style="stroke:#181818;stroke-width:1.0;"/></g><!--link Zwischenschritt to ZuordnungAnzeigen--><g id="link_Zwischenschritt_ZuordnungAnzeigen"><path d="M406,203.31 C406,221.15 406,242.96 406,261.8 " fill="none" id="Zwischenschritt-to-ZuordnungAnzeigen" style="stroke:#181818;stroke-width:1.0;stroke-dasharray:7.0,7.0;"/><polygon fill="#181818" points="406,267.8,410,258.8,406,262.8,402,258.8,406,267.8" style="stroke:#181818;stroke-width:1.0;"/></g><!--link Zwischenschritt to ZuordnungBearbeiten--><g id="link_Zwischenschritt_ZuordnungBearbeiten"><path d="M440.02,201.5 C479.8,219.61 540.159,247.0946 582.939,266.5646 " fill="none" id="Zwischenschritt-to-ZuordnungBearbeiten" style="stroke:#181818;stroke-width:1.0;stroke-dasharray:7.0,7.0;"/><polygon fill="#181818" points="588.4,269.05,581.8654,261.6812,583.8492,266.9788,578.5515,268.9626,588.4,269.05" style="stroke:#181818;stroke-width:1.0;"/></g><!--link Actor to DatenquelleAuswaehlen--><g id="link_Actor_DatenquelleAuswaehlen"><path d="M183,82 C183,107.8 183,135.2 183,156.62 " fill="none" id="Actor-to-DatenquelleAuswaehlen" style="stroke:#181818;stroke-width:1.0;"/><polygon fill="#181818" points="183,162.62,187,153.62,183,157.62,179,153.62,183,162.62" style="stroke:#181818;stroke-width:1.0;"/></g><!--link ZuordnungAnzeigen to Suchen--><g id="link_ZuordnungAnzeigen_Suchen"><path d="M406,310 C406,333.8 406,366.92 406,387.8 " fill="none" id="ZuordnungAnzeigen-to-Suchen" style="stroke:#181818;stroke-width:1.0;stroke-dasharray:7.0,7.0;"/><polygon fill="#181818" points="406,393.8,410,384.8,406,388.8,402,384.8,406,393.8" style="stroke:#181818;stroke-width:1.0;"/><text fill="#000000" font-family="sans-serif" font-size="13" lengthAdjust="spacing" textLength="61" x="407" y="353.8169">&#171;include&#187;</text></g><!--link ZuordnungBearbeiten to ZuordnungSpeichern--><g id="link_ZuordnungBearbeiten_ZuordnungSpeichern"><path d="M630,311.08 C630,332.69 630,360.06 630,381.46 " fill="none" id="ZuordnungBearbeiten-to-ZuordnungSpeichern" style="stroke:#181818;stroke-width:1.0;stroke-dasharray:7.0,7.0;"/><polygon fill="#181818" points="630,387.46,634,378.46,630,382.46,626,378.46,630,387.46" style="stroke:#181818;stroke-width:1.0;"/><text fill="#000000" font-family="sans-serif" font-size="13" lengthAdjust="spacing" textLength="61" x="631" y="353.8169">&#171;include&#187;</text></g><!--link Suchen to FilterAnwenden--><g id="link_Suchen_FilterAnwenden"><path d="M399.62,423.94 C390.08,444.86 374.5812,478.8016 364.2712,501.3916 " fill="none" id="Suchen-to-FilterAnwenden" style="stroke:#181818;stroke-width:1.0;stroke-dasharray:7.0,7.0;"/><polygon fill="#181818" points="361.78,506.85,369.1557,500.3232,363.856,502.3013,361.8779,497.0016,361.78,506.85" style="stroke:#181818;stroke-width:1.0;"/><text fill="#000000" font-family="sans-serif" font-size="13" lengthAdjust="spacing" textLength="60" x="382" y="473.2669">&#171;extend&#187;</text></g><!--link Suchen to Sortieren--><g id="link_Suchen_Sortieren"><path d="M419.88,423.49 C442.4,445.42 482.3314,484.3041 504.8414,506.2241 " fill="none" id="Suchen-to-Sortieren" style="stroke:#181818;stroke-width:1.0;stroke-dasharray:7.0,7.0;"/><polygon fill="#181818" points="509.14,510.41,505.4827,501.2654,505.5578,506.9217,499.9015,506.9968,509.14,510.41" style="stroke:#181818;stroke-width:1.0;"/><text fill="#000000" font-family="sans-serif" font-size="13" lengthAdjust="spacing" textLength="60" x="475" y="473.2669">&#171;extend&#187;</text></g><!--SRC=[XPFTJeGm48NlUOh9thCFO3Oag35hr0l56BDt0uoxJMhH_WIpnhVnJNmns_8ZhQ1S59ZpdUd00Qnq8o5tQoAfqYZsd61rkRrAxoKAzTJ8vnMy9s0FewX2PTLpr2HU3N6Beb7jr-U1arW1AfX8kLMGd1Awpue7ZzfpA1Itrrwu8uwQDG9vg3_UTFgMaKHP7PYg3Y6H7qt95A0u4jlt4-rQnv6mYsHQXuQTQMGjZDX7dg6SzzKbLqaeIs8wzfsEzIMdUY5cnvAHiHZAqQinxX4ysbs6yWNZcgHzXfP4tNDTBUzBKRj6QliIXux3NUAfsGWXJRCniMKYYcuP33ByWrrdim56DLWxBWuD_aT_SeAa6yF_2dx4-K-vw_bhAzUrImPEOBDXekAcfYmBySbsmHXZwf7Pk_kspX1cwc5wiztgVgC9EeOQKX_V]--></g></svg>